<svg width="117" height="64" viewBox="0 0 117 64" fill="none" xmlns="http://www.w3.org/2000/svg">
<path d="M11.2447 38.0834C11.2447 38.0834 27.0752 23.2358 31.0891 5.67916C35.0132 -11.4836 9.53297 35.5131 2.35173 61.8594C2.34201 61.9054 2.31436 61.9456 2.27487 61.9713C2.23537 61.9969 2.18726 62.0059 2.14113 61.9962C2.09499 61.9865 2.0546 61.959 2.02885 61.9196C2.0031 61.8803 1.9941 61.8323 2.00382 61.7864C2.56234 57.6878 5.56553 47.4397 21.2918 37.8951C23.4526 37.3963 23.6291 38.5966 23.4422 39.6004C23.3762 39.9552 23.8294 40.1918 24.1298 39.9594L29.0316 36.1539C29.397 35.87 29.9607 36.0911 29.9855 36.5293L30.0536 37.7224C30.0805 38.1872 30.6668 38.4361 31.0705 38.1523C32.4384 37.1896 35.2403 34.5227 39.3068 27.2717C39.527 26.8788 39.7683 26.4981 40.0295 26.1311C47.5318 15.5765 52.6679 18.6733 45.5951 27.3786C40.0976 34.1452 42.3813 34.8991 43.774 34.8765C44.2177 34.87 44.6439 34.7025 44.9726 34.4054L57.2868 23.1669C57.2868 23.1669 46.8484 35.5861 47.7383 37.0332C48.6282 38.4804 76.4591 33.2668 76.4591 33.2668C76.4591 33.2668 111.767 30.1268 115 31.5688" stroke="white" stroke-width="3" stroke-miterlimit="10" stroke-linecap="round"/>
</svg>
