<svg width="20" height="21" viewBox="0 0 20 21" fill="none" xmlns="http://www.w3.org/2000/svg">
<path d="M2.00019 16.1672C3.9724 12.6488 5.6179 9.63766 7.30983 5.98047C7.90399 4.69616 8.5195 3.32937 9.40474 2.21668C9.59948 1.9719 9.75187 1.8656 9.73054 2.27359C9.68689 3.10849 9.45805 3.94536 9.31366 4.76382C8.87772 7.23494 8.6615 9.72403 8.82672 12.2345C8.95642 14.2053 9.46998 16.0391 9.87067 17.9549C9.92079 18.1945 10.0537 18.6545 9.85315 18.8727C9.5901 19.1589 9.34916 18.9062 9.17353 18.6664C7.07698 15.8036 5.1988 12.7141 3.42128 9.6411C3.15594 9.18237 2.89881 8.71863 2.65058 8.25013C2.54367 8.04836 2.4441 7.84219 2.35631 7.63113C2.3292 7.56595 2.27843 7.48921 2.30726 7.4248C2.32616 7.38257 2.39849 7.43035 2.44389 7.43547C2.69319 7.4636 2.83796 7.49044 3.10249 7.55287C4.68578 7.92651 6.21928 8.44696 7.8213 8.75529C10.6874 9.3069 13.6015 9.54977 16.4672 10.1C16.5107 10.1084 18.3561 10.3613 17.9385 10.7226C17.3667 11.2172 16.3069 11.4842 15.6544 11.708C13.4569 12.4616 11.2337 13.1398 9.0299 13.8745C6.74185 14.6372 4.46573 15.5257 2.1321 16.1406C1.69194 16.2565 2.48477 15.9738 2.58051 15.9414" stroke="white" stroke-width="3" stroke-linecap="round"/>
</svg>
